<svg width="1358" height="1518" viewBox="0 0 1358 1518" fill="none" xmlns="http://www.w3.org/2000/svg" id="svg2089065352_8734">
<mask id="svg2089065352_8734_mask0_86_7979" style="mask-type:alpha" maskUnits="userSpaceOnUse" x="0" y="0" width="1440" height="566">
<rect y="0.189941" width="1440" height="565" fill="url(#svg2089065352_8734_paint0_radial_86_7979)"></rect>
</mask>
<g mask="url(#svg2089065352_8734_mask0_86_7979)">
</g>
<g opacity="0.3" clip-path="url(#svg2089065352_8734_clip0_86_7979)">
<g clip-path="url(#svg2089065352_8734_clip1_86_7979)">
<g clip-path="url(#svg2089065352_8734_clip2_86_7979)">
<path d="M1339.88 766.535V0.290039" stroke="#727272" stroke-dasharray="6 6"></path>
<path d="M1293.16 766.535V0.290039" stroke="#727272" stroke-dasharray="6 6"></path>
<path d="M1246.44 766.535V0.290039" stroke="#727272" stroke-dasharray="6 6"></path>
<path d="M1199.72 766.535V0.290039" stroke="#727272" stroke-dasharray="6 6"></path>
<path d="M1153 766.535V0.290039" stroke="#727272" stroke-dasharray="6 6"></path>
<path d="M1106.27 766.535V0.290039" stroke="#727272" stroke-dasharray="6 6"></path>
<path d="M1059.55 766.535V0.290039" stroke="#727272" stroke-dasharray="6 6"></path>
<path d="M1012.83 766.535V0.290039" stroke="#727272" stroke-dasharray="6 6"></path>
<path d="M966.109 766.535V0.290039" stroke="#727272" stroke-dasharray="6 6"></path>
<path d="M919.385 766.535V0.290039" stroke="#727272" stroke-dasharray="6 6"></path>
<path d="M872.664 766.535V0.290039" stroke="#727272" stroke-dasharray="6 6"></path>
<path d="M825.944 766.535V0.290039" stroke="#727272" stroke-dasharray="6 6"></path>
<path d="M779.219 766.535V0.290039" stroke="#727272" stroke-dasharray="6 6"></path>
<path d="M732.492 766.535V0.290039" stroke="#727272" stroke-dasharray="6 6"></path>
<path d="M685.748 766.546V0.30127" stroke="#727272" stroke-dasharray="6 6"></path>
<path d="M639.027 766.546V0.30127" stroke="#727272" stroke-dasharray="6 6"></path>
<path d="M592.303 766.546V0.30127" stroke="#727272" stroke-dasharray="6 6"></path>
<path d="M545.582 766.546V0.30127" stroke="#727272" stroke-dasharray="6 6"></path>
<path d="M498.861 766.546V0.30127" stroke="#727272" stroke-dasharray="6 6"></path>
<path d="M452.137 766.546V0.30127" stroke="#727272" stroke-dasharray="6 6"></path>
<path d="M405.416 766.546V0.30127" stroke="#727272" stroke-dasharray="6 6"></path>
<path d="M358.689 766.546L358.69 0.301758" stroke="#727272" stroke-dasharray="6 6"></path>
<path d="M311.971 766.546V0.301758" stroke="#727272" stroke-dasharray="6 6"></path>
<path d="M265.254 766.546V0.30127" stroke="#727272" stroke-dasharray="6 6"></path>
<path d="M218.523 766.546L218.524 0.301758" stroke="#727272" stroke-dasharray="6 6"></path>
<path d="M171.799 766.546V0.30127" stroke="#727272" stroke-dasharray="6 6"></path>
<path d="M125.078 766.546V0.30127" stroke="#727272" stroke-dasharray="6 6"></path>
<path d="M78.3574 766.546L78.3575 0.301758" stroke="#727272" stroke-dasharray="6 6"></path>
<path d="M31.6426 766.546L31.6427 0.30127" stroke="#727272" stroke-dasharray="6 6"></path>
<path d="M0.365234 733.341L1466.51 733.342" stroke="#727272" stroke-dasharray="6 6"></path>
<path d="M0.365234 686.619H1466.51" stroke="#727272" stroke-dasharray="6 6"></path>
<path d="M0.365234 639.896H1466.51" stroke="#727272" stroke-dasharray="6 6"></path>
<path d="M0.365234 593.173L1466.51 593.174" stroke="#727272" stroke-dasharray="6 6"></path>
<path d="M0.365234 546.451H1466.51" stroke="#727272" stroke-dasharray="6 6"></path>
<path d="M0.365234 499.73H1466.51" stroke="#727272" stroke-dasharray="6 6"></path>
<path d="M0.365234 453.005L1466.51 453.006" stroke="#727272" stroke-dasharray="6 6"></path>
<path d="M0.365234 406.283H1466.51" stroke="#727272" stroke-dasharray="6 6"></path>
<path d="M0.365234 359.562H1466.51" stroke="#727272" stroke-dasharray="6 6"></path>
<path d="M0.365234 312.839L1466.51 312.84" stroke="#727272" stroke-dasharray="6 6"></path>
<path d="M0.365234 266.117H1466.51" stroke="#727272" stroke-dasharray="6 6"></path>
<path d="M0.365234 219.396H1466.51" stroke="#727272" stroke-dasharray="6 6"></path>
<path d="M0.365234 172.673L1466.51 172.674" stroke="#727272" stroke-dasharray="6 6"></path>
<path d="M0.365234 125.951H1466.51" stroke="#727272" stroke-dasharray="6 6"></path>
<path d="M0.365234 79.228L1466.51 79.2282" stroke="#727272" stroke-dasharray="6 6"></path>
<path d="M0.365234 32.5073L1466.51 32.5075" stroke="#727272" stroke-dasharray="6 6"></path>
</g>
</g>
</g>
<g opacity="0.3" clip-path="url(#svg2089065352_8734_clip3_86_7979)">
<g clip-path="url(#svg2089065352_8734_clip4_86_7979)">
<g clip-path="url(#svg2089065352_8734_clip5_86_7979)">
<path d="M1339.88 1517.35V751.1" stroke="#727272" stroke-dasharray="6 6"></path>
<path d="M1293.16 1517.35V751.1" stroke="#727272" stroke-dasharray="6 6"></path>
<path d="M1246.44 1517.35V751.1" stroke="#727272" stroke-dasharray="6 6"></path>
<path d="M1199.72 1517.35V751.1" stroke="#727272" stroke-dasharray="6 6"></path>
<path d="M1153 1517.35V751.1" stroke="#727272" stroke-dasharray="6 6"></path>
<path d="M1106.27 1517.35V751.1" stroke="#727272" stroke-dasharray="6 6"></path>
<path d="M1059.55 1517.35V751.1" stroke="#727272" stroke-dasharray="6 6"></path>
<path d="M1012.83 1517.35V751.1" stroke="#727272" stroke-dasharray="6 6"></path>
<path d="M966.109 1517.35V751.1" stroke="#727272" stroke-dasharray="6 6"></path>
<path d="M919.385 1517.35V751.1" stroke="#727272" stroke-dasharray="6 6"></path>
<path d="M872.664 1517.35V751.1" stroke="#727272" stroke-dasharray="6 6"></path>
<path d="M825.944 1517.35V751.1" stroke="#727272" stroke-dasharray="6 6"></path>
<path d="M779.219 1517.35V751.1" stroke="#727272" stroke-dasharray="6 6"></path>
<path d="M732.492 1517.35V751.1" stroke="#727272" stroke-dasharray="6 6"></path>
<path d="M685.748 1517.36V751.111" stroke="#727272" stroke-dasharray="6 6"></path>
<path d="M639.027 1517.36V751.111" stroke="#727272" stroke-dasharray="6 6"></path>
<path d="M592.303 1517.36V751.111" stroke="#727272" stroke-dasharray="6 6"></path>
<path d="M545.582 1517.36V751.111" stroke="#727272" stroke-dasharray="6 6"></path>
<path d="M498.861 1517.36V751.111" stroke="#727272" stroke-dasharray="6 6"></path>
<path d="M452.137 1517.36V751.111" stroke="#727272" stroke-dasharray="6 6"></path>
<path d="M405.416 1517.36V751.111" stroke="#727272" stroke-dasharray="6 6"></path>
<path d="M358.689 1517.36L358.69 751.112" stroke="#727272" stroke-dasharray="6 6"></path>
<path d="M311.971 1517.36V751.112" stroke="#727272" stroke-dasharray="6 6"></path>
<path d="M265.254 1517.36V751.111" stroke="#727272" stroke-dasharray="6 6"></path>
<path d="M218.523 1517.36L218.524 751.112" stroke="#727272" stroke-dasharray="6 6"></path>
<path d="M171.799 1517.36V751.111" stroke="#727272" stroke-dasharray="6 6"></path>
<path d="M125.078 1517.36V751.111" stroke="#727272" stroke-dasharray="6 6"></path>
<path d="M78.3574 1517.36L78.3575 751.112" stroke="#727272" stroke-dasharray="6 6"></path>
<path d="M31.6426 1517.36L31.6427 751.111" stroke="#727272" stroke-dasharray="6 6"></path>
<path d="M0.365234 1484.15L1466.51 1484.15" stroke="#727272" stroke-dasharray="6 6"></path>
<path d="M0.365234 1437.43H1466.51" stroke="#727272" stroke-dasharray="6 6"></path>
<path d="M0.365234 1390.71H1466.51" stroke="#727272" stroke-dasharray="6 6"></path>
<path d="M0.365234 1343.98L1466.51 1343.98" stroke="#727272" stroke-dasharray="6 6"></path>
<path d="M0.365234 1297.26H1466.51" stroke="#727272" stroke-dasharray="6 6"></path>
<path d="M0.365234 1250.54H1466.51" stroke="#727272" stroke-dasharray="6 6"></path>
<path d="M0.365234 1203.81L1466.51 1203.82" stroke="#727272" stroke-dasharray="6 6"></path>
<path d="M0.365234 1157.09H1466.51" stroke="#727272" stroke-dasharray="6 6"></path>
<path d="M0.365234 1110.37H1466.51" stroke="#727272" stroke-dasharray="6 6"></path>
<path d="M0.365234 1063.65L1466.51 1063.65" stroke="#727272" stroke-dasharray="6 6"></path>
<path d="M0.365234 1016.93H1466.51" stroke="#727272" stroke-dasharray="6 6"></path>
<path d="M0.365234 970.206H1466.51" stroke="#727272" stroke-dasharray="6 6"></path>
<path d="M0.365234 923.483L1466.51 923.484" stroke="#727272" stroke-dasharray="6 6"></path>
<path d="M0.365234 876.761H1466.51" stroke="#727272" stroke-dasharray="6 6"></path>
<path d="M0.365234 830.038L1466.51 830.038" stroke="#727272" stroke-dasharray="6 6"></path>
<path d="M0.365234 783.317L1466.51 783.318" stroke="#727272" stroke-dasharray="6 6"></path>
</g>
</g>
</g>
<defs>
<radialGradient id="svg2089065352_8734_paint0_radial_86_7979" cx="0" cy="0" r="1" gradientUnits="userSpaceOnUse" gradientTransform="translate(720 282.69) rotate(21.4231) scale(773.438 525.963)">
<stop offset="0.5"></stop>
<stop offset="0.6" stop-opacity="0"></stop>
</radialGradient>
<clipPath id="svg2089065352_8734_clip0_86_7979">
<rect width="1358" height="767" fill="white" transform="translate(0 0.189941)"></rect>
</clipPath>
<clipPath id="svg2089065352_8734_clip1_86_7979">
<rect width="1358" height="767" fill="white" transform="translate(0 0.189941)"></rect>
</clipPath>
<clipPath id="svg2089065352_8734_clip2_86_7979">
<rect width="1358" height="767" fill="white" transform="translate(0 0.189941)"></rect>
</clipPath>
<clipPath id="svg2089065352_8734_clip3_86_7979">
<rect width="1358" height="767" fill="white" transform="translate(0 751)"></rect>
</clipPath>
<clipPath id="svg2089065352_8734_clip4_86_7979">
<rect width="1358" height="767" fill="white" transform="translate(0 751)"></rect>
</clipPath>
<clipPath id="svg2089065352_8734_clip5_86_7979">
<rect width="1358" height="767" fill="white" transform="translate(0 751)"></rect>
</clipPath>
</defs>
</svg>